<svg width="44" height="44" viewBox="0 0 44 44" fill="none" xmlns="http://www.w3.org/2000/svg">
<rect width="44" height="44" rx="8" fill="#2B2B2B"/>
<path fill-rule="evenodd" clip-rule="evenodd" d="M15.7143 16.6668L15.7143 25.1429C15.7143 25.5149 15.4128 25.8164 15.0408 25.8164C14.6689 25.8164 14.3674 25.5149 14.3674 25.1429L14.3674 15.0409C14.3674 14.8623 14.4383 14.691 14.5646 14.5647C14.6909 14.4384 14.8622 14.3674 15.0408 14.3674L25.1429 14.3674C25.5148 14.3674 25.8164 14.669 25.8164 15.0409C25.8164 15.4128 25.5148 15.7144 25.1429 15.7144L16.6667 15.7144L28.9864 28.0341C29.2495 28.2971 29.2495 28.7235 28.9864 28.9865C28.7234 29.2495 28.297 29.2495 28.034 28.9865L15.7143 16.6668Z" fill="white"/>
</svg>
