<svg width="87" height="87" viewBox="0 0 87 87" fill="none" xmlns="http://www.w3.org/2000/svg">
<rect width="87" height="87" rx="10" fill="#202020"/>
<path fill-rule="evenodd" clip-rule="evenodd" d="M36.5 34V35.25H33.1881C31.5889 35.25 30.2477 36.4574 30.0803 38.0479L27.975 58.0479C27.7808 59.893 29.2275 61.5 31.0829 61.5H56.9174C58.7727 61.5 60.2195 59.893 60.0252 58.0479L57.92 38.0479C57.7525 36.4574 56.4114 35.25 54.8121 35.25H51.5V34C51.5 29.8579 48.1421 26.5 44 26.5C39.8579 26.5 36.5 29.8579 36.5 34ZM44 29C41.2386 29 39 31.2386 39 34V35.25H49V34C49 31.2386 46.7614 29 44 29ZM39 42.75C39 45.5114 41.2386 47.75 44 47.75C46.7614 47.75 49 45.5114 49 42.75V41.5C49 40.8096 49.5596 40.25 50.25 40.25C50.9404 40.25 51.5 40.8096 51.5 41.5V42.75C51.5 46.8921 48.1421 50.25 44 50.25C39.8579 50.25 36.5 46.8921 36.5 42.75V41.5C36.5 40.8096 37.0596 40.25 37.75 40.25C38.4404 40.25 39 40.8096 39 41.5V42.75Z" fill="white"/>
<rect x="0.5" y="0.5" width="86" height="86" rx="9.5" stroke="white" stroke-opacity="0.04"/>
<rect x="0.5" y="0.5" width="86" height="86" rx="9.5" stroke="url(#paint0_linear_2_760)" stroke-opacity="0.12"/>
<defs>
<linearGradient id="paint0_linear_2_760" x1="43.5" y1="0" x2="43.5" y2="64.4135" gradientUnits="userSpaceOnUse">
<stop stop-color="white"/>
<stop offset="1" stop-color="white" stop-opacity="0"/>
</linearGradient>
</defs>
</svg>
