<svg width="87" height="87" viewBox="0 0 87 87" fill="none" xmlns="http://www.w3.org/2000/svg">
<rect width="87" height="87" rx="10" fill="#202020"/>
<path d="M44 36.5C41.9289 36.5 40.25 38.1789 40.25 40.25C40.25 42.3211 41.9289 44 44 44C46.0711 44 47.75 42.3211 47.75 40.25C47.75 38.1789 46.0711 36.5 44 36.5Z" fill="white"/>
<path fill-rule="evenodd" clip-rule="evenodd" d="M26.5 32.125C26.5 30.3991 27.8991 29 29.625 29H58.375C60.1009 29 61.5 30.3991 61.5 32.125V48.375C61.5 50.1009 60.1009 51.5 58.375 51.5H29.625C27.8991 51.5 26.5 50.1009 26.5 48.375V32.125ZM37.75 40.25C37.75 36.7982 40.5482 34 44 34C47.4518 34 50.25 36.7982 50.25 40.25C50.25 43.7018 47.4518 46.5 44 46.5C40.5482 46.5 37.75 43.7018 37.75 40.25ZM55.25 39C54.5596 39 54 39.5596 54 40.25V40.2625C54 40.9529 54.5596 41.5125 55.25 41.5125H55.2625C55.9529 41.5125 56.5125 40.9529 56.5125 40.2625V40.25C56.5125 39.5596 55.9529 39 55.2625 39H55.25ZM31.5 40.25C31.5 39.5596 32.0596 39 32.75 39H32.7625C33.4529 39 34.0125 39.5596 34.0125 40.25V40.2625C34.0125 40.9529 33.4529 41.5125 32.7625 41.5125H32.75C32.0596 41.5125 31.5 40.9529 31.5 40.2625V40.25Z" fill="white"/>
<path d="M27.75 54C27.0596 54 26.5 54.5596 26.5 55.25C26.5 55.9404 27.0596 56.5 27.75 56.5C36.7501 56.5 45.4671 57.7037 53.7496 59.9582C55.7339 60.4983 57.75 59.028 57.75 56.9252V55.25C57.75 54.5596 57.1904 54 56.5 54H27.75Z" fill="white"/>
<rect x="0.5" y="0.5" width="86" height="86" rx="9.5" stroke="white" stroke-opacity="0.04"/>
<rect x="0.5" y="0.5" width="86" height="86" rx="9.5" stroke="url(#paint0_linear_2_766)" stroke-opacity="0.12"/>
<defs>
<linearGradient id="paint0_linear_2_766" x1="43.5" y1="0" x2="43.5" y2="64.4135" gradientUnits="userSpaceOnUse">
<stop stop-color="white"/>
<stop offset="1" stop-color="white" stop-opacity="0"/>
</linearGradient>
</defs>
</svg>
