<svg width="87" height="87" viewBox="0 0 87 87" fill="none" xmlns="http://www.w3.org/2000/svg">
<rect width="87" height="87" rx="10" fill="#202020"/>
<path d="M39.625 29C37.8991 29 36.5 30.3991 36.5 32.125C36.5 33.8509 37.8991 35.25 39.625 35.25H42.75V42.75H29.625C27.8991 42.75 26.5 41.3509 26.5 39.625V38.375C26.5 36.6491 27.8991 35.25 29.625 35.25H34.9472C34.3489 34.3562 34 33.2813 34 32.125C34 29.0184 36.5184 26.5 39.625 26.5C41.392 26.5 42.9688 27.3148 44 28.5892C45.0312 27.3148 46.608 26.5 48.375 26.5C51.4816 26.5 54 29.0184 54 32.125C54 33.2813 53.6511 34.3562 53.0528 35.25H59.625C61.3509 35.25 62.75 36.6491 62.75 38.375V39.625C62.75 41.3509 61.3509 42.75 59.625 42.75H45.25V35.25H48.375C50.1009 35.25 51.5 33.8509 51.5 32.125C51.5 30.3991 50.1009 29 48.375 29C46.6491 29 45.25 30.3991 45.25 32.125V35.25H42.75V32.125C42.75 30.3991 41.3509 29 39.625 29Z" fill="white"/>
<path d="M42.75 45.25H29V56.5C29 58.5711 30.6789 60.25 32.75 60.25H42.75V45.25Z" fill="white"/>
<path d="M45.25 45.25V60.25H56.5C58.5711 60.25 60.25 58.5711 60.25 56.5V45.25H45.25Z" fill="white"/>
<rect x="0.5" y="0.5" width="86" height="86" rx="9.5" stroke="white" stroke-opacity="0.04"/>
<rect x="0.5" y="0.5" width="86" height="86" rx="9.5" stroke="url(#paint0_linear_2_764)" stroke-opacity="0.12"/>
<defs>
<linearGradient id="paint0_linear_2_764" x1="43.5" y1="0" x2="43.5" y2="64.4135" gradientUnits="userSpaceOnUse">
<stop stop-color="white"/>
<stop offset="1" stop-color="white" stop-opacity="0"/>
</linearGradient>
</defs>
</svg>
