<svg width="87" height="87" viewBox="0 0 87 87" fill="none" xmlns="http://www.w3.org/2000/svg">
<rect width="87" height="87" rx="10" fill="#202020"/>
<path fill-rule="evenodd" clip-rule="evenodd" d="M33.375 26.5H39C42.4518 26.5 45.25 29.2982 45.25 32.75V35.875C45.25 37.6009 46.6491 39 48.375 39H51.5C54.9518 39 57.75 41.7982 57.75 45.25V58.375C57.75 60.1009 56.3509 61.5 54.625 61.5H33.375C31.6491 61.5 30.25 60.1009 30.25 58.375V29.625C30.25 27.8991 31.6491 26.5 33.375 26.5ZM40.25 52.75C40.25 52.0596 39.6904 51.5 39 51.5C38.3096 51.5 37.75 52.0596 37.75 52.75V54C37.75 54.6904 38.3096 55.25 39 55.25C39.6904 55.25 40.25 54.6904 40.25 54V52.75ZM44 47.75C44.6904 47.75 45.25 48.3096 45.25 49V54C45.25 54.6904 44.6904 55.25 44 55.25C43.3096 55.25 42.75 54.6904 42.75 54V49C42.75 48.3096 43.3096 47.75 44 47.75ZM50.25 45.25C50.25 44.5596 49.6904 44 49 44C48.3096 44 47.75 44.5596 47.75 45.25V54C47.75 54.6904 48.3096 55.25 49 55.25C49.6904 55.25 50.25 54.6904 50.25 54V45.25Z" fill="white"/>
<path d="M47.75 32.75C47.75 30.5616 46.9466 28.5608 45.6187 27.0265C51.2835 28.5063 55.7437 32.9665 57.2235 38.6313C55.6892 37.3034 53.6884 36.5 51.5 36.5H48.375C48.0298 36.5 47.75 36.2202 47.75 35.875V32.75Z" fill="white"/>
<rect x="0.5" y="0.5" width="86" height="86" rx="9.5" stroke="white" stroke-opacity="0.04"/>
<rect x="0.5" y="0.5" width="86" height="86" rx="9.5" stroke="url(#paint0_linear_2_768)" stroke-opacity="0.12"/>
<defs>
<linearGradient id="paint0_linear_2_768" x1="43.5" y1="0" x2="43.5" y2="64.4135" gradientUnits="userSpaceOnUse">
<stop stop-color="white"/>
<stop offset="1" stop-color="white" stop-opacity="0"/>
</linearGradient>
</defs>
</svg>
