<svg width="87" height="87" viewBox="0 0 87 87" fill="none" xmlns="http://www.w3.org/2000/svg">
<rect width="87" height="87" rx="10" fill="#202020"/>
<path fill-rule="evenodd" clip-rule="evenodd" d="M26.5 34.625C26.5 32.8991 27.8991 31.5 29.625 31.5H58.375C60.1009 31.5 61.5 32.8991 61.5 34.625V39.6689C61.5 40.1151 61.2621 40.5275 60.8759 40.7509C59.7518 41.4012 59 42.6135 59 44C59 45.3865 59.7518 46.5988 60.8759 47.2491C61.2621 47.4725 61.5 47.8849 61.5 48.3311V53.375C61.5 55.1009 60.1009 56.5 58.375 56.5H29.625C27.8991 56.5 26.5 55.1009 26.5 53.375V48.3311C26.5 47.8849 26.7379 47.4725 27.1241 47.2491C28.2482 46.5988 29 45.3865 29 44C29 42.6135 28.2482 41.4012 27.1241 40.7509C26.7379 40.5275 26.5 40.1151 26.5 39.6689V34.625ZM51.5 32.75C52.1904 32.75 52.75 33.3096 52.75 34V35.25C52.75 35.9404 52.1904 36.5 51.5 36.5C50.8096 36.5 50.25 35.9404 50.25 35.25V34C50.25 33.3096 50.8096 32.75 51.5 32.75ZM52.75 40.25C52.75 39.5596 52.1904 39 51.5 39C50.8096 39 50.25 39.5596 50.25 40.25V41.5C50.25 42.1904 50.8096 42.75 51.5 42.75C52.1904 42.75 52.75 42.1904 52.75 41.5V40.25ZM51.5 45.25C52.1904 45.25 52.75 45.8096 52.75 46.5V47.75C52.75 48.4404 52.1904 49 51.5 49C50.8096 49 50.25 48.4404 50.25 47.75V46.5C50.25 45.8096 50.8096 45.25 51.5 45.25ZM52.75 52.75C52.75 52.0596 52.1904 51.5 51.5 51.5C50.8096 51.5 50.25 52.0596 50.25 52.75V54C50.25 54.6904 50.8096 55.25 51.5 55.25C52.1904 55.25 52.75 54.6904 52.75 54V52.75ZM34 44C34 43.3096 34.5596 42.75 35.25 42.75H44C44.6904 42.75 45.25 43.3096 45.25 44C45.25 44.6904 44.6904 45.25 44 45.25H35.25C34.5596 45.25 34 44.6904 34 44ZM35.25 47.75C34.5596 47.75 34 48.3096 34 49C34 49.6904 34.5596 50.25 35.25 50.25H40.25C40.9404 50.25 41.5 49.6904 41.5 49C41.5 48.3096 40.9404 47.75 40.25 47.75H35.25Z" fill="white"/>
<rect x="0.5" y="0.5" width="86" height="86" rx="9.5" stroke="white" stroke-opacity="0.04"/>
<rect x="0.5" y="0.5" width="86" height="86" rx="9.5" stroke="url(#paint0_linear_2_762)" stroke-opacity="0.12"/>
<defs>
<linearGradient id="paint0_linear_2_762" x1="43.5" y1="0" x2="43.5" y2="64.4135" gradientUnits="userSpaceOnUse">
<stop stop-color="white"/>
<stop offset="1" stop-color="white" stop-opacity="0"/>
</linearGradient>
</defs>
</svg>
