<svg width="87" height="87" viewBox="0 0 87 87" fill="none" xmlns="http://www.w3.org/2000/svg">
<rect width="87" height="87" rx="10" fill="#202020"/>
<path d="M27.7885 33.3754C29.1106 32.2082 30.8475 31.5 32.7498 31.5H55.2498C57.1521 31.5 58.889 32.2082 60.2112 33.3754C59.9038 30.9088 57.7997 29 55.2498 29H32.7498C30.1999 29 28.0958 30.9088 27.7885 33.3754Z" fill="white"/>
<path d="M27.7885 38.3754C29.1106 37.2082 30.8475 36.5 32.7498 36.5H55.2498C57.1521 36.5 58.889 37.2082 60.2112 38.3754C59.9038 35.9088 57.7997 34 55.2498 34H32.7498C30.1999 34 28.0958 35.9088 27.7885 38.3754Z" fill="white"/>
<path d="M32.75 39C29.9886 39 27.75 41.2386 27.75 44V54C27.75 56.7614 29.9886 59 32.75 59H55.25C58.0114 59 60.25 56.7614 60.25 54V44C60.25 41.2386 58.0114 39 55.25 39H49C48.3096 39 47.75 39.5596 47.75 40.25C47.75 42.3211 46.0711 44 44 44C41.9289 44 40.25 42.3211 40.25 40.25C40.25 39.5596 39.6904 39 39 39H32.75Z" fill="white"/>
<rect x="0.5" y="0.5" width="86" height="86" rx="9.5" stroke="white" stroke-opacity="0.04"/>
<rect x="0.5" y="0.5" width="86" height="86" rx="9.5" stroke="url(#paint0_linear_2_758)" stroke-opacity="0.12"/>
<defs>
<linearGradient id="paint0_linear_2_758" x1="43.5" y1="0" x2="43.5" y2="64.4135" gradientUnits="userSpaceOnUse">
<stop stop-color="white"/>
<stop offset="1" stop-color="white" stop-opacity="0"/>
</linearGradient>
</defs>
</svg>
